<?xml version="1.0" encoding="UTF-8"?>
<svg id="Layer_1" data-name="Layer 1" xmlns="http://www.w3.org/2000/svg" viewBox="0 0 862.42 344.99">
  <path d="M0,185.21v-12.47c14.09-.71,31.07-3.85,45.13-5.7,6.31-.88,13.05-1.48,19.29-1.24.78-.7,1.41-.98,2.24-1.09,3.73-.52,15.95-2.2,19.52-2.7,4.78-7.23,4.77-16.77,7.83-24.78,10.13-29.53,18.78-59.76,31.53-88,1.19-2.33,3.77-2.59,5.98-1.35,2.25,1.08,1.15,2.45,3.12,7.92,1.1,5.63-4.44,10.28-5.9,15.52-3.92,8.17-10.36,22.47-12.63,30.92-.95,3.53-2.62,6.76-4.42,9.92-1.76,5.43-2.02,11.17-5.32,16.19-2.86,6.23.09,6.69-4.02,6.37-1.06-.02,1.15,3.79-.23,7.2l-2.7,6.66c1.66,7.04-3.36,5.62-1.39,11.95,2.7,1.22,5.5.85,8.05.12,3.28-.7,6.78-.41,9.8.47,3.55-2.42,3.91-.13,7.19-3.95l7.11-8.29c4.64-6.35,13.54-8.37,17.37-15.19,4.05-12.43,9.56-27.66,14.18-39.91,1.42-5.41,3.63-12.86,5.66-18.07.9-3.11,3.8-10.15,5.11-13.18,2.41-6.31,4.6-14.84,6.87-21.33,3.59-10.71,9.61-23.1,13.92-33.59,1.87-6.71,8.49-10.64,11.01-1.98,2.94,8.88-.23,7.12-2.93,14.38-1.46,2.75-6.66,13.07-8.06,16.18-4.04,1.43-1.86,5.95-5.64,9.55-.24.32,1.49.96,1.39,1.34-1.8,6.85-1.13,4.11-4.77,9.98,1.05,2.44-.71,3.53-1.44,5.14l-2.26,4.98c-.9,3.58-2.95,7.4-5.24,10.19v2.15c-.76,1.05-1.32,2.93-1.69,4-1.77,1.81-2.46,2.21-.47,4.32,1.72,1.49.33,3.09-.95,4.4-.74,2.23-4.61,6.54-3.49,8.78.64,1.38.61,3.36-.62,4.07-1.99,1.15-1.12,2.23-1.2,3.91-.28,5.85-1.99,11.55-3.95,17.01-.65,3.79-2.35-1.87-5.12,5.93,3.98.57,9.28-1.9,13.39-.68,9.89,3.18,12.85,13.02,15.29,22.09,4.81-2.22,15.28-2.31,19.07-2.95,3.94-1.28,7.22-1.83,11.27-2.24,3.23-.04,7.92-1.16,10.98-1.88,0,0,10.29-.04,10.29-.04l4.77,2.32c4.32-4.11,10.43-11.15,14.6-15.18,3.94-2.71,6.8.83,9.51,3.12.6,12.03,2.23,22.38-.88,34.11,15.49-1.66,31.57-9,40.22-22.27,6.34-4.69,10,5.23,10.4,7.89l.45,16.16c11.9-2.99,29.51-13.45,34.11-25.52,1.8-4.58,11.63-2.33,12.29.45l2.46,10.46c.17.74-.37,2.65.33,3.2,7.63-1.15,18.01-8.14,23.38-13.59,4.86-4.89,3.28,1.27,14.78-13.52,6.47-3.69,8.33,8.73,10.05,12.63-.63.94-1.39,2.22-2.13,2.97-7.48,7.63-3.68,8.71-8.55,11.88.53,1.85.6,4.45-1.4,5.56-.8-.44-1.48-2.07-1.92-2.93-.66-.24-.63.85-.56,1.25-.11,1.61.27,3.76,2,4.38l-2.13,1.11-.58,2.06c-.98.57-4.56,2.06-3.41,3.59,0,0,2.4.88,2.4.88-.59.43-2.6,1.36-2.28,2.26,4.38,2.73-4.42,11.05-6.08,14.1-1.71,1.28-3.83,2.43-4.51,4.56-.48,1.51,3.03.98,3.12,1.37.69,2.92-.87,6.9-4.91,7.52-.7,2.15-.45,6.08-4.2,5.38l-1.17,1.04c9.48,10.07,35.64,3.48,48.35,2.22,12.59-1.67,12.92-3.48,24.9-5.3,4.4-.67,10.31-4.41,16.89-4.02,1.39.08,2.7-.78,3.89-1.33l7.31-3.4c8.38-3.9,14-2.3,13.79-8.32-.2-5.7,2.71-6.95,4.09-12.94-4.35-8-6.2-3.27-9.12-9.12l-4.71-2.21c-.89.59-1.48.79-1.8.45-2.95-3.22-2.25-.17-5.46-3.44l-2.72-1.03s-1.74-1.46-1.74-1.46c-.4-.34-1.89,1.15-2.35.9-3.89-1.4-6.63-5.4-10.42-6.94-4.13-1.27-7.79-4.34-12.08-4.47-.6-.11-.72-1.9-1.25-2.37-5.62-4.98-1.77-1.38-6.76-4.33-2.81-1.66-6.46-2.47-8.97-4.45-3.6-2.93-8.81-6.89-12.7-9.2-.46-.29-.46-1.77-.92-1.94-5.22-1.48-9.25-6.5-12.88-10.28l-2.53.34c-7.48-10.3-14.05-21.95-13.77-35.13-.73-3.88,3.17-10.66,4.31-14.23,2.16-5.42,5.42-8.47,8.38-12.67,2.41-3.83,6.28-8.3,9.52-11.48.63-.66,2.92-.28,3.17-1.74,1.67-5.8,3.96-1.74,6.84-3.72,3.86-3.16-.24-2.68,5.34-4.82,7.52-2.43,12.81-7.74,20.59-9.65,6.68-2.57,12.51-2.74,18.12-6.69,2.3.58,2.98-.38,4.96-1.37s6.58-1.61,8.69-2.31c.57.05,1.37.74,1.77,1.11,5.17-4.19,9.2-1.46,13.77-3.78,9.63-4.91,14.07-2.56,18.02-4.9,1.9-1.13,2.88-.82,4.82-.05,3.62-.09,9.06.99,11.06-2.9,4.28-1.21,8.66-1.76,12.92-1.62,3.76-.42,7.35-2.57,11.31-2.41,3.64.77,6.72-.14,10.03-.88,3.82-.1,7.77-1.31,11.42-.33,1.96.53,3.71,2.99,6.23,1.32,5.32-3.45,16.8-2.42,23.18-2.59,9.28,1.09,18.88.85,27.99,2.6,15.08,3.43,33.04,13.84,31.13,31.57-.51,5.13-2.23,9.94-6.9,12.95-5.6,3.63-10.95-9.08-9.05-12.88,15.42-16.03-24.3-19.03-32.66-21.44-11.47-.92-23.83.04-35.39-1.09-4.49-1.3-4.42,1.4-8.3,1.53l-.67-3.55c-2.99-.29-5.98,1.32-8.87,1.96.21.52,1.44,1.39.88,2.06-3.77.74-7.06-1.52-8.93-.65-3.43,1.6-6.02.72-9.32.22-1.87-.28-3.71-.22-5.51-1.58-.66-.44-2.13.99-2.73,1.78-2.34,1.05-6.99.74-9.51.7-.21,2.04-.4,2.92-2.12,2.95-2.84.06-2.29-3.7-3.77-2.75-2.27,1.68-4.99,2.52-7.95,2.3-7.8-.27-11.12,3.22-18.36,3.45-.16,1.6-1.64,4.26-3.67,3.62-.21-1-.75-2.21-1.73-2.72-4.3,2.79-7.03,2.12-12.81,3.97,0,0-8.67,2.76-8.67,2.76-2.67.85-4.76,2.63-7.99,2-.71.79-9.18,3.69-4.64,4.45l-.02.59c-3.63,3.13-5.39-4.75-7.87-3.99l-3.1,3.41c.26,2.66-1.96,2.99-3.78,3.57-2.33.86,1.23,1.53,1.92,1.78-1.44,2.2-3.85-.52-3.89,2.99-8.86,7.04-12.79.59-16.99,7.94-1.97,2.34.69,1.9-.88,3.3l-4.11,3.67c-56.35,47.77,31.93,90.36,71.39,106.03-1.93-3.7-8.72-14.81-11-18.54-.74-1.22-.62-3.69-.8-5.19,7.23-5.21,10.92,5.19,15.04,10.66,0,0,7.61,9.87,7.61,9.87,2.26.73,5.9.64,8.11-.54,2.6-5.41,3.73-11.95,4.54-18.03,1.71-5.45,4.53-12.34,6.96-17.57.7-1.59,1.65-4.41,3.03-5.16,16.74-2.94,4.07,21.65,1.02,30.17-5.82,17.36-5.24,11.69,12.11,12.1,5.12-.17,10.29-1.22,15.16-2.5,6.07-.92,17.02-7.14,21.8-.27,5.78,16.04-18.67,10.96-27.15,14.1.57,2.82-11.92,2.34-13.73,2.28-.78-.02-1.88-1.13-2.96-.48-1.13-.06-6.84-1.55-8.17-1.73-2-1.31-2.12-1.42-4.03.14-7.7,7.86,18.87,38.72,24.68,46.29,7.07.65,13.94-5.7,16.71-11.59,1.55-8.06,4.22-19.99,14.81-18.26l4.38,6.32c-1.78,7.2-4.59,10.03-6.55,17.4,8.21,2.92,21.25-4.81,14.36-13.18,0,0-4.12-4.5-4.12-4.5-5.06-7.79-2.78-10.81,5.3-9.44,6.59,2.8,4.16,7.89,14.63,6.19,3.62-.88,11.44.41,11.98-4.9,2.55-7.79,5.23-15.64,9.21-22.78,2.85-5.74,5.51-14.01,11.37-18.08,3.28-12.38,13.67-24.25,23.05-32.95,5.48-5.22,14.36-7.23,19.42-.87,2.01,2.09,4.9,3.82,5.19,7.11.83,5.19-.28,13.43-.71,18.71-.31,3.39-5.72,18.77-7.04,20.32-2.48,2.63-5.88,6.91-7.31,10.13l.71.9c-3.42,5.02-8.97,6.91-12.98,12.56-2.22.51-6.65-.19-6.18,3.3l-3.02,3.13c-2.31-1.68-3.19.92-4.69,1.53-5.36,1.43-11.99,2.02-16.15,6.5-2.81,3.92-3.6,14.02,3.05,14.61,7.09.47,15.52.55,21.74-2.65-3.72-21.42,48.69-40.04,54.38-16.6-1.91,3-3.85,5.57-5.91,8.15-3.67,1.17-8.74,3.16-11.87,5.47-4.29,1.65-10.55,4.96-15.14,5.23,0,0-1.05.04-1.05.04-3.53,3.72,27.01,2.39,31.06,2.25,6.41-.54,15.62-2.17,21.96-3.52,21.25-3.9,45.36-19.59,65.49-5.24,8.82,7.17,11.99,19.04,19.65,27.2,6.78,10.16,19.37,9.04,30.29,7.98,3.87-.25-.61,3.4,10.93-2.69,3.24-.03,6.04-.74,8.92-2.12,3.02-.63,5.97-2.53,8.25-4.21.28-.15,1.39.56,1.22.79,0,0-.59.81-.59.81-3.28,4.51-3.99,2.39-7.86,6.97-3.13,3.71-2.72-.98-5.47,3.4l.25,1.02,1.37.61s-2.36,1.8-2.36,1.8c-3.99,4.63-10.79,4.71-16.16,6.29-14.66,5.5-29.52-5.13-36.89-16.75,0,0-8.76-13.71-8.76-13.71-2.94-4.94-5.56-10.2-12.24-9.44-3.54-2.16-14.76-1.68-17.8-.31-8.3,3.78-17.91,5.6-26.9,6.6-4.78-.55-6.37-1.41-8.35,3.56-2.48,1.13-7.3.71-12,1.27-.2.02-.18-.53-.26-1.06-.68-1.27-2.43-1.44-2.57.7l-.56.18c-.99-1.42-1.96-1.53-3.3-1.35-.5.02-1.99.29-2,.8l-.03,2.13-5.15-.38-.03-1.44c-6.33-.7-14.29-.45-20.18.62-5.04-1.18-4.21,3.11-7.36-.6-3.51-1.49-12.52,1.04-17.79-6.51-14.04,1.68-41.48,6.88-42.81-13.54.03-1.04-2.59-1.71-3.53-1.4-4.14,1.4-1.14,2.94-7.09,3.19-2.97-.06-2.72,4.64-3.41,6.53-.41,1.85-.51,5.52-3.01,6.27-8.86,3.91-17.13,3.56-25.19,4.71l-5-2.29c-.63-.29-1.82,1.51-2.48,1.82l-8.79,4.03c-1.33.61-1.48,1.81-1.94,2.7-1.64,1.61-4.15,3.39-6.18,4.71-10.17-3.46-19.57-22.66-26.67-30.72-1.27-2.13-2.2-1.54-3.7-.19-9.56,6.95-7.95,4.33-8.13,16.17-.79.89-1.69,2.34-1.96,3.66l-2.61.97c-6.58-5.69-4.93-12.62-9.2-11.44-3.17,4.43-10.55,3.66-14.23,7.85-6.14,2.4.24.61-5.79,3.3-3.04,3.61-10.26,6-14.65,7.24-7.78,2.73-17.74,4.93-25.97,5.77-5.25.98-16.31,2.84-21.55,3.46-9.98,1.68-16.19.1-26.55,3.49-5.35,1.17-6.41,1.07-13.02,6.8-2.08.27,1.12,3.69-1.87,4.81-5.32,2-4.17,6.58-9.24,13.11-3.86,4.97,1.81,13.37-4.8,14.62l-.34,3.87c-1.26-.21-2.14.13-3.31.67-5.41,2.77-.44,5.53-5.93,5.94-.93.19,1.23,2.17-.54,5.56,1.58,3.88,1.37,5.8-2.28,9.01-.87.76-3.68.85-3.88,2.25-.52,5.81-.2,7.52-4.14,11.73-.71,3.72-4.11,6.37-5.96,9.44-4.86,6.68-6.67,6.88-12.02,13.1-.33-.91-.42-2.52-1.68-1.59-.37,1.75.38,2.48-.6,2.59-18.67,2.61-23.38-23.4-18.22-37.03,0,0,4.9-13.33,4.9-13.33,1.91-3.58,6.88-13.22,8.44-16.69,5.12-13.07,11.35-23.29,23.38-31.04,8.52-5.17,19.95-9.18,30.13-9.92,5.24.71,6.68-6.09,8.3-9.76,5.29-11.93,10.37-25.98,15.86-37.79,5.29-7.68,5.3-16.89,9.51-25.11-.04-9.08-16.53,10.1-21.42,8.35-7.13,4.85-4.55,3.94-12.38,8.3-1.47.82-2.52,3.06-4.7,2.99-3.69-.13-4.29,4.2-6.12,5.24-6.76,4.09-17.49,10.77-21.4-.14-1.89-6.58-12.52,9.09-19.33-5.14-3.07-4.42-.78-5.3-2.48-10.77-10.84,4.56-23.02,11.77-34.92,12.85-5.67,1.33-11.2,2.35-13.99-4-6.45-6.09,1.17-18.17-.81-24.69-3.95,1.98-8.15,7.97-11.77,10.83-5.91,5.66-4.37,1.56-8.19,6.75-1.65,1.64-5.33,2.14-7.38,3.27-1.1.44-2.29,2.84-3.46,3.42-4.02,3.03-6.88,6.85-11.59,9.15-5.69,4.31-10.59,3.98-12.59,6.11-3.83,3.09-10.76,4.59-15.84,4.72-7.84-.7-5.94-4.57-9.41-5.31-.96,1.54-2.16,4.06-3.5,4.61-5.48.84-2.67-11.55-8.47-8.1,0,0-5.55,2-5.55,2-3.15-.28-5.71.62-7.32,3.13-5.99.95-18.18,4.05-18.1,12.04-.51,7.75-4,10.73-3.81,14.25.16,2.86-.84,4.54-1.71,7-3.42,9.33-8.49,22.64-9.44,32.21-3.77,4.67-6.2,14.79-8.34,20.37-.36,1.04.9,3.36-1.12,3.96-4.38,1.29-6.82-7.61-6.38-9.97.73-6.93,7.52-22.17,9.97-28.8,1.02-4.35,4.73-17.12,6.16-21.27,1.06-5.21,9.03-19.81,5.98-23.66-.88-.6-2.02-.39-3.45-.16-2.23.37-6.19-2.07-6.62-4.53-1.7-7.67-2.41-16.35.21-23.73-4.81.7-.87-2.34-8.09-2.3l.09-2.86c-2.73-.4-4.38,1.56-4.8,4.25-2.59.24-5.75.49-8.03,2.11-2.82,9.88-5.96,20.72-11.04,29.75l.56,3.52c-4.03,2.5.69,3.41-6.65,10.92l-4.53,4.63c-.19-.33-.16-1.46.24-1.83,1.35-1.25.43-3.66.26-5.19-.35-3.17,1.74-6.22,2.6-9.12,2.42-9.59,6.3-19.13,9.62-28.4-1.73-7.46-3.95-1.5-14.02-1.84,0,0-9.41-.17-9.41-.17-2.92-2.96-9.81-2.63-10.77,1.99l-3.19.86-1.3-2.08c-2.98.82-6.14,1.33-9.29,1.5l.91-3.12-7.06.72-1.85,2.19c-1.4-1.53-3.11-1.46-4.58-.37l.79,1.55-4.23,1.91c-2.56-.52-5.83-1.03-8.61-.41-.12.6.03,1.48.27,2.45-6.66.77-1.8-1.23-10.3-.81ZM622.78,181.4c-.72.9-.94,2.31-.61,3.77,23.93-10.82,44.37-33.94,43.86-61.23-3.42-.57-6.31,2.77-8.84,4.45-7.46,4.38-12.63,11.91-16.31,19.64-1.1.93-5.43,6.39-5.28,6.71l.63,1.32c-2.15,4.51-4.25,10.96-9.17,13.16-3.83,5.36-.41,7.31-4.28,12.17ZM167.21,158.35c2.28-.28,6.73.75,6.44-1.99,0,0-1.36-.64-1.36-.64l1.76-.6c.48-.16,1.15-6.68-1-8.18-6.7-2.6-25.72-.75-23.15,9.47,5.42.67,10.99-2.05,16.43-1.53.26,1.28.54,2.6.88,3.47ZM214.95,171.59c.79-1.01,6.9-3.46,4.12-5.01,0,0-3.54.11-3.54.11.09-1.66,1.36-3.6-1.53-3.38-5.55,1.1-12.05-.27-16.54,3.96-5.63,4.77-13.1,10.73-13.43,18.72,5.42,1.22,26.57-11.31,30.92-14.4ZM140.61,180.36c-.73,2.21-1.03,3.56-1,6.08,2.58.46,11.63-4.68,14.01-5.59,5.67-2.79,12.57-6.34,17.84-10.03-2.35-2.25-5.81-4.26-7.84-6.64-2.76-.48-4.85.31-2.98,3.47-2.09,1.14-3.09-1.41-3.74-2.93-.29-.47-1.8,1.03-1.66,1.58l.52,1.94c-1.72-.02-2.22.65-2.89,2.05l-.87-1.28c-.94-.57-6.12,1.09-7.25,1.15-2.3,2.71-3.94,6.68-4.14,10.2ZM128.06,189.62c.67-2.37,4.28-12.99,5.42-15.52l-3.79-3.02c-4.45,2.2-13.71,24.58-1.62,18.54ZM301.83,308.45c-7.47,25.84,3.95,26.56,17.38,6.88,11.22-14.35,18.75-32.12,27.86-47.89,3.25-5.8,5.34-12.51,9.45-17.95.26-4.89-3.3-.33-6.54-.44-1.81-.04-2.46,1.74-3.58,2.19-4.76,2.25-9.82,2.95-13.95,6.33-7.03,5.21-1.07-.39-7.46,7.91-6.75,8.11-13.93,19.12-17.86,29.01-4.35,1.51-3.09,6.67-3.71,10.12-1.29,1.21-1.18,2.2-1.6,3.84Z"/>
  <path d="M344.41,295.9c-.6-.54-1.06-1.88-.47-2.23.27-.16,1.39.36,1.26.63l-.79,1.61Z"/>
  <path d="M346.12,291.78l.52-2.02c.14.09,1.12,1.06.82,1.23l-1.34.79Z"/>
</svg>